<?xml version="1.0" encoding="utf-8"?>
<!-- Generator: Adobe Illustrator 19.1.0, SVG Export Plug-In . SVG Version: 6.00 Build 0)  -->
<svg version="1.1" id="Art" xmlns="http://www.w3.org/2000/svg" xmlns:xlink="http://www.w3.org/1999/xlink" x="0px" y="0px"
	 viewBox="0 0 576 576" style="enable-background:new 0 0 576 576;" xml:space="preserve">
<style type="text/css">
	.st0{fill:#1C5C80;}
	.st1{fill:#FFFFFF;}
	.st2{fill:none;stroke:#FFFFFF;stroke-width:3;stroke-miterlimit:10;}
	.st3{fill:none;stroke:#000000;stroke-width:1.9932;stroke-miterlimit:10;}
	.st4{fill:none;stroke:#000000;stroke-width:1.5364;stroke-miterlimit:10;}
	.st5{fill:none;stroke:#000000;stroke-width:3.0694;stroke-miterlimit:10;}
	.st6{fill:none;stroke:#000000;stroke-width:2.3659;stroke-miterlimit:10;}
</style>
<g id="New_Symbol_14_1_">
</g>
<g id="New_Symbol_14">
</g>
<g>
	<path class="st1" d="M177.2,407.5c7.2,5.5,15.1,5.3,22.9,5.4c8.6,0.1,17.3,0.1,25.9,0.4c2.4,0.1,4.7,1.2,8.6,2.2
		c-19.1,7.1-37.3-0.8-55.4,3.6c12.4,4.3,36.7,14.6,36.4,15.4c-13.6,1.6-25-7.7-39.1-9.3c8.4,14.3,25.2,17.2,35.2,29.5
		c-13.3,1.7-18.9-11.2-29.9-13.7c4.5,17.3,20.7,26,28.5,42c-16.5-5.8-19.5-22.3-30-31.7c-0.5,0.3,30.5,55.2,30.1,55.5
		c-7.8-4.4-13.4-11.1-17.6-18.9c-5.8-10.8-11-21.9-16.7-32.7c-1.9-3.6-4.3-7-7-10.2c12,32.9,26.4,64.4,50.4,92.7
		c-0.6-10.6-1.8-19.5-1.4-28.5c0.6-16.9,1.9-33.7,3.1-50.6c0.8-11.6,6.2-21.5,14.3-29.4c12-11.7,24.7-22.6,37.1-33.8
		c1.3-1.2,2.7-2.4,4-3.7c-0.1-0.6-0.2-1.2-0.3-1.8c-8.9-0.1-17.8-0.7-26.6-0.1c-18.2,1.2-36.3,3.2-54.5,4.3
		c-7.2,0.4-14.6-0.7-22.2-1.2c-0.1,4.7,1.5,7.4,6.4,7.1c15-0.8,30-1.8,45-2.4c7.1-0.3,14.2,0.2,21.3,0.3c0.1,0.7-8.4,4.8-12.8,5
		c-12.4,0.7-24.8,0.6-37.2,1.3C189.6,405.1,183.4,406.6,177.2,407.5z"/>
	<path class="st1" d="M142.2,328.2c-14.5,24-4.8,59.4,25.4,85.7c1.3-8.2,0.3-16-3.1-23.2c-3.3-6.9-7.3-13.5-11.3-20.1
		c-6.2-10.2-12-20.5-11.7-32.9C141.4,334.5,141.9,331.4,142.2,328.2z"/>
	<path class="st1" d="M132.1,369.3c-0.3,15.1-0.2,28.6,4.8,41.4c3.5,9.1,9.4,16.2,17.8,21.2c2.9,1.8,5.9,3.1,8.4-0.4
		c2.3-3.2,4.3-6.3,1.2-10.6c-9-12.5-17.6-25.2-26.1-38.1C135.8,379.2,134.5,374.8,132.1,369.3z"/>
	<path class="st1" d="M189,285.3c-5.8,3.8-6.5,10.9-9,24.2c-0.1-1.8-0.3-9.1-0.3-10.9c-0.1-2,0-4.1,0-6.3c-7.4,3.5-6.7,12.1-5,35.5
		c-1.2-2-3.9-7.9-4.9-9.7c-0.5,0.1-0.9,0.2-1.4,0.3c0.4,4.5,0.6,9.1,1.4,13.5c0.2,1.1,2.1,2.5,3.3,2.8c9.2,1.7,16.8-4,17.5-13.8
		c0.5-7.4-0.1-15-0.4-22.5C190,294.1,189.4,289.9,189,285.3z"/>
	<path class="st1" d="M367.4,200.9c5.6,15.3,33.2,24.6,51.7,17.6c-3-4-5.6-6.3-11.6-4.4c-4.7,1.5-10.9,0.9-15.7-0.9
		C383.5,210,375.8,205.2,367.4,200.9z"/>
	<path class="st1" d="M105.9,297.1c12.3-3.9,32.2-5.7,42.7-13.9c-0.1-0.7-19.8,3.8-26.3,5.1c-6.8,1.3-13.6,2.5-20.6,3.8
		c-3.2,10.2,2.1,19.7,10.4,20.3c1.7-2.9,2.6-5.7,4.5-7.2c2.4-1.8,5.7-2.5,9.7-4.1C119,299,111.4,304.6,105.9,297.1z"/>
	<path class="st1" d="M396.5,120.9c0.2,0.4,0.3,0.9,0.5,1.3c-6,3.1-12.1,6-18,9.2c-4.2,2.2-8.4,4.4-12.2,7.1
		c-16.6,12-15.4,6.8-10.5,28c3.9,16.5,12.3,30.6,28.4,38.1c6.8,3.2,14.5,4.4,22.4,5.7c-6-8.4-9.3-17.1-9.2-26.9
		c0.2-24.6,9.8-44.7,29.5-59.9c-1.1,1.5-2.1,3-3.3,4.4c-1.3,1.6-2.6,3.3-4,4.8c-11.3,11.9-16,26.7-17.7,42.5
		c-1.2,11.2,3,20.8,10.3,28.9c5.4,6,11.2,11.6,17.1,17.7c-15.2,5-30.3,5.8-45.6,1.8c13.4,12.8,30,6.6,46.6,7.1
		c-8.6,6.7-17.7,8-27.2,7.3c-20.1-1.5-33.6-12.8-41.5-30.5c-4.4-9.7-6.9-20.3-9.7-30.6c-2.4-9-3.8-18.3-5.8-27.5
		c-0.2-1.1-1.8-2.5-2.9-2.6c-59-5.6-117.4-4.6-173.2,19c-42.2,17.8-72.8,47.6-89.5,90.7c-2,5.3-3.2,11.4-2.7,17
		c3.5,40.6,14.3,79.2,35.1,114.5c2.8,4.7,6.3,8.9,9.6,13.3c0.4,0.5,1,0.8,1.2,0.9c-0.3-9.8-1.7-19.8-0.9-29.5
		c2.2-25.3,8.9-49.3,26.7-68.7c16.4-18,37-29.5,59.1-38.6c36-14.8,73.8-20.7,112.3-22.2c23.7-0.9,47.4,0.9,71.1-0.5
		c30.6-1.8,61.1-5.8,89.2-19.7c12.3-6.1,22.7-14.6,31.6-25.2c3.3-3.9,3.4-7.6,1.3-12.4c-5.5,2.5-10.8,5-16,7.3
		c-17.4,7.7-35.3,13-54.6,12.3c-8.2-0.3-9.4-1.4-8.8-9.6c0.5-6.8,3.2-12.4,8.8-16.4c3.1-2.2,6.3-4.4,9.8-5.4
		c14.4-4.1,28.9-7.8,43.3-11.6c0.2,0.6-6.9,5.2-10.9,6.3c-8,2.3-16.1,3.9-24,6.4c-11.3,3.6-19.8,10.1-20.8,24.4
		c3-1.5,5.3-2.7,7.7-3.9c17.1-8.7,34.3-17.4,51.4-25.9c2.3-1.2,4.9-1.8,7.4-2.7c8.3-2.7,10.4-10.1,3.4-15.8
		c-9.6-7.8-19.6-15.4-30.5-21.1c-42.1-22.2-87.3-34.9-134.3-41.2c-36.8-5-73.6-5.3-110,2.5c-12.1,2.6-23.8,6.8-35.8,10
		c-2.8,0.7-6.3,0.9-8.9-0.1c-10.9-4-21.7-8.5-32.5-12.8c0.1-0.6,0.3-1.3,0.4-1.9c3.4,0.6,6.8,1.2,10.2,2c11.2,2.7,22.2,5.7,33.5,8
		c5.2,1.1,10.4-0.1,14.9-4.5c-16.3-10.8-35.2-14.6-52.2-22.5c0.1-0.5,0.2-1,0.4-1.4c6.6,1.7,13.2,3.2,19.8,5.1
		c13,3.7,25.9,7.8,38.9,11.5c2.2,0.6,4.7,0.2,7.4-1c-12.2-5.3-24.4-10.7-36.6-16c-9.5-4.1-19.1-7.8-28.6-12.1
		c-3.5-1.6-5.8-1.2-7.2,2.2c-3.7,8.6-7.9,17.1-10.7,26c-6.1,20.2-16.2,38.4-27.8,55.9c-1,1.5-2,3.1-3.5,5.4c4.2,2,8.1,3.8,12.3,5.8
		c-23.3,27.4-44.6,55.6-50.4,92.4c1.6-3,3.1-6.1,4.8-9.1c31.7-58.6,81.8-90.3,146.8-99.8c37.9-5.6,75.5-2.5,112.7,5.8
		c5.8,1.3,10.8,0.9,15.8-1.7c8.2-4.2,16.3-8.8,24.5-12.9C388.5,123.4,392.6,122.3,396.5,120.9z M147.3,134.4
		c-2.1,1.9-3.4,3.1-4.9,4.6c-2.8-2.3-5.4-4.4-8.9-7.2C138.7,132.7,142.6,133.5,147.3,134.4z M143.9,116.1c6.4,1.6,12.8,3.3,19.8,5.1
		C158,126,152.3,124.8,143.9,116.1z M182.3,108.7c-2,2.2-4.3,4.1-5.9,3.6c-8.5-2.7-16.7-6.1-25.1-9.2c0.3-1,0.6-1.9,0.9-2.9
		C162.2,103,172.3,105.9,182.3,108.7z M156.1,287.9c2.3-0.1,3.4-0.2,6.4-0.3c-7,6.2-12.3,11.6-18.3,15.9
		c-8.7,6.2-17.5,12.5-28.5,14.4c-8.1,1.4-11.7-0.1-15.8-7.3c-4.5-7.8-4.8-16.3-4.4-25.2c23.8-1,46.4-6.2,68.1-14.9
		C164.1,270.9,159.3,282,156.1,287.9z M337.5,221.9c-6.5,2.6-12.8,6.1-19.6,7.7c-18.5,4.4-36.7,1.9-54.2-5.1
		c-11.4-4.5-21.2-11.2-28.7-21.2c-2.8-3.7-2.8-6.9-0.3-10.7c5.8-9,14.4-13,24.5-14.2c12.6-1.5,24.8,0.7,36.7,4.6
		c13.4,4.5,26.1,10.4,36.2,20.9c-5-2-10-4.2-15.1-6c-13.8-4.8-27.5-10.2-41.7-13.9c-10.3-2.7-21.1-2.2-30,5.4c-7,6-7.3,9-1.1,15.5
		c3.2,3.4,6.8,6.6,10.8,9c17.3,10.2,36,13.8,55.9,11c3.5-0.5,6.8-1.8,10.2-2.8c-0.1-0.7-0.2-1.3-0.3-2c-13-0.2-26-0.3-39.1-0.5
		c9-9,20.6-0.9,31.1-5.5c-18.4-7.9-38-4.5-56-9.6c10.5-5.7,21.3-0.2,31.9-1.5c0.1-0.5,0.2-1,0.4-1.5c-9.7-2.6-19.4-5.1-29.8-7.9
		c1.3-0.7,1.6-1,1.9-1c22.3,1.2,43.6,6.1,63.4,16.7c4.8,2.6,8.8,6.5,13.1,9.9C337.7,220.2,337.6,221,337.5,221.9z M458.8,150.8
		c-0.6,3-3.3,5.1-6.1,4.5c-2.8-0.5-4.5-3.4-4-6.5c0.6-3,3.3-5.1,6.1-4.5C457.6,144.9,459.3,147.8,458.8,150.8z M445.1,159.2
		c11.9,4.9,17.5,2.4,20.8-9.4c0.7,5.4,0.3,9.5-5.2,12.7C455.7,165.6,451,163.3,445.1,159.2z M441.4,140.4c3.2-3.8,10.3-4.9,15-2.3
		c-11.2,0.3-15,5-14.1,17.1C438.9,148.7,438.1,144.2,441.4,140.4z"/>
</g>
</svg>
