<?xml version="1.0" encoding="utf-8"?>
<!-- Generator: Adobe Illustrator 19.1.0, SVG Export Plug-In . SVG Version: 6.00 Build 0)  -->
<svg version="1.1" id="Art" xmlns="http://www.w3.org/2000/svg" xmlns:xlink="http://www.w3.org/1999/xlink" x="0px" y="0px"
	 viewBox="0 0 576 576" style="enable-background:new 0 0 576 576;" xml:space="preserve">
<style type="text/css">
	.st0{fill:#1C5C80;}
	.st1{fill:#FFFFFF;}
	.st2{fill:none;stroke:#FFFFFF;stroke-width:3;stroke-miterlimit:10;}
	.st3{fill:none;stroke:#000000;stroke-width:1.9932;stroke-miterlimit:10;}
	.st4{fill:none;stroke:#000000;stroke-width:1.5364;stroke-miterlimit:10;}
	.st5{fill:none;stroke:#000000;stroke-width:3.0694;stroke-miterlimit:10;}
	.st6{fill:none;stroke:#000000;stroke-width:2.3659;stroke-miterlimit:10;}
</style>
<g id="New_Symbol_14_1_">
</g>
<g id="New_Symbol_14">
</g>
<g>
	<g>
		<path class="st1" d="M288.4,551.6L62.2,421V159.9L288.4,29.3l226.2,130.6V421L288.4,551.6z M84.8,408l203.6,117.5L491.9,408V172.9
			L288.4,55.4L84.8,172.9V408z"/>
	</g>
	<g>
		<path class="st1" d="M261.7,297.3c2.6,2,5.5,1.9,8.4,2c3.1,0,6.3,0,9.4,0.1c0.9,0,1.7,0.4,3.1,0.8c-7,2.6-13.6-0.3-20.2,1.3
			c4.5,1.6,13.4,5.3,13.3,5.6c-5,0.6-9.1-2.8-14.2-3.4c3.1,5.2,9.2,6.3,12.8,10.7c-4.8,0.6-6.9-4.1-10.9-5
			c1.6,6.3,7.5,9.5,10.4,15.3c-6-2.1-7.1-8.1-10.9-11.5c-0.2,0.1,11.1,20.1,11,20.2c-2.8-1.6-4.9-4-6.4-6.9c-2.1-3.9-4-8-6.1-11.9
			c-0.7-1.3-1.6-2.5-2.5-3.7c4.4,12,9.6,23.5,18.4,33.8c-0.2-3.9-0.6-7.1-0.5-10.4c0.2-6.1,0.7-12.3,1.1-18.4
			c0.3-4.2,2.3-7.8,5.2-10.7c4.4-4.3,9-8.2,13.5-12.3c0.5-0.4,1-0.9,1.5-1.3c0-0.2-0.1-0.4-0.1-0.6c-3.2,0-6.5-0.3-9.7,0
			c-6.6,0.4-13.2,1.2-19.8,1.6c-2.6,0.2-5.3-0.3-8.1-0.4c-0.1,1.7,0.6,2.7,2.3,2.6c5.5-0.3,10.9-0.7,16.4-0.9
			c2.6-0.1,5.2,0.1,7.8,0.1c0,0.3-3,1.7-4.7,1.8c-4.5,0.3-9,0.2-13.5,0.5C266.2,296.4,264,296.9,261.7,297.3z"/>
		<path class="st1" d="M249,268.4c-5.3,8.7-1.8,21.6,9.2,31.2c0.5-3,0.1-5.8-1.1-8.4c-1.2-2.5-2.7-4.9-4.1-7.3
			c-2.2-3.7-4.4-7.5-4.3-12C248.7,270.7,248.9,269.6,249,268.4z"/>
		<path class="st1" d="M245.3,283.4c-0.1,5.5-0.1,10.4,1.8,15.1c1.3,3.3,3.4,5.9,6.5,7.7c1.1,0.6,2.2,1.1,3.1-0.1
			c0.8-1.2,1.6-2.3,0.4-3.9c-3.3-4.6-6.4-9.2-9.5-13.9C246.6,287,246.2,285.4,245.3,283.4z"/>
		<path class="st1" d="M266,252.8c-2.1,1.4-2.4,4-3.3,8.8c0-0.7-0.1-3.3-0.1-4c0-0.7,0-1.5,0-2.3c-2.7,1.3-2.4,4.4-1.8,12.9
			c-0.4-0.7-1.4-2.9-1.8-3.5c-0.2,0-0.3,0.1-0.5,0.1c0.2,1.6,0.2,3.3,0.5,4.9c0.1,0.4,0.7,0.9,1.2,1c3.3,0.6,6.1-1.4,6.4-5
			c0.2-2.7,0-5.5-0.1-8.2C266.4,256,266.1,254.4,266,252.8z"/>
		<path class="st1" d="M331,222c2,5.6,12.1,9,18.8,6.4c-1.1-1.4-2.1-2.3-4.2-1.6c-1.7,0.5-4,0.3-5.7-0.3
			C336.9,225.4,334.1,223.6,331,222z"/>
		<path class="st1" d="M235.8,257.1c4.5-1.4,11.7-2.1,15.6-5.1c-0.1-0.2-7.2,1.4-9.6,1.8c-2.5,0.5-5,0.9-7.5,1.4
			c-1.2,3.7,0.8,7.2,3.8,7.4c0.6-1,0.9-2.1,1.6-2.6c0.9-0.7,2.1-0.9,3.5-1.5C240.5,257.8,237.8,259.8,235.8,257.1z"/>
		<path class="st1" d="M341.6,192.9c0.1,0.2,0.1,0.3,0.2,0.5c-2.2,1.1-4.4,2.2-6.6,3.3c-1.5,0.8-3.1,1.6-4.4,2.6
			c-6,4.4-5.6,2.5-3.8,10.2c1.4,6,4.5,11.2,10.3,13.9c2.5,1.2,5.3,1.6,8.1,2.1c-2.2-3.1-3.4-6.2-3.4-9.8c0.1-9,3.6-16.3,10.7-21.8
			c-0.4,0.5-0.8,1.1-1.2,1.6c-0.5,0.6-0.9,1.2-1.5,1.7c-4.1,4.3-5.8,9.7-6.4,15.5c-0.4,4.1,1.1,7.6,3.8,10.5c2,2.2,4.1,4.2,6.2,6.5
			c-5.5,1.8-11,2.1-16.6,0.6c4.9,4.6,10.9,2.4,17,2.6c-3.1,2.4-6.5,2.9-9.9,2.6c-7.3-0.6-12.2-4.7-15.1-11.1
			c-1.6-3.5-2.5-7.4-3.5-11.1c-0.9-3.3-1.4-6.7-2.1-10c-0.1-0.4-0.7-0.9-1.1-0.9c-21.5-2.1-42.8-1.7-63.1,6.9
			c-15.4,6.5-26.5,17.3-32.6,33c-0.7,1.9-1.2,4.2-1,6.2c1.3,14.8,5.2,28.8,12.8,41.7c1,1.7,2.3,3.2,3.5,4.8c0.1,0.2,0.4,0.3,0.4,0.3
			c-0.1-3.6-0.6-7.2-0.3-10.7c0.8-9.2,3.3-17.9,9.7-25c6-6.5,13.5-10.7,21.5-14c13.1-5.4,26.9-7.5,40.9-8.1
			c8.6-0.3,17.3,0.3,25.9-0.2c11.2-0.6,22.3-2.1,32.5-7.2c4.5-2.2,8.3-5.3,11.5-9.2c1.2-1.4,1.2-2.8,0.5-4.5c-2,0.9-3.9,1.8-5.8,2.7
			c-6.3,2.8-12.8,4.8-19.9,4.5c-3-0.1-3.4-0.5-3.2-3.5c0.2-2.5,1.2-4.5,3.2-6c1.1-0.8,2.3-1.6,3.6-2c5.2-1.5,10.5-2.8,15.8-4.2
			c0.1,0.2-2.5,1.9-4,2.3c-2.9,0.8-5.9,1.4-8.7,2.3c-4.1,1.3-7.2,3.7-7.6,8.9c1.1-0.5,1.9-1,2.8-1.4c6.2-3.2,12.5-6.3,18.7-9.5
			c0.9-0.4,1.8-0.7,2.7-1c3-1,3.8-3.7,1.2-5.7c-3.5-2.8-7.1-5.6-11.1-7.7c-15.3-8.1-31.8-12.7-48.9-15c-13.4-1.8-26.8-1.9-40.1,0.9
			c-4.4,0.9-8.7,2.5-13.1,3.6c-1,0.3-2.3,0.3-3.3,0c-4-1.4-7.9-3.1-11.8-4.7c0.1-0.2,0.1-0.5,0.2-0.7c1.2,0.2,2.5,0.4,3.7,0.7
			c4.1,1,8.1,2.1,12.2,2.9c1.9,0.4,3.8,0,5.4-1.6c-5.9-3.9-12.8-5.3-19-8.2c0-0.2,0.1-0.3,0.1-0.5c2.4,0.6,4.8,1.2,7.2,1.9
			c4.7,1.4,9.4,2.8,14.2,4.2c0.8,0.2,1.7,0.1,2.7-0.4c-4.4-1.9-8.9-3.9-13.3-5.8c-3.5-1.5-7-2.8-10.4-4.4c-1.3-0.6-2.1-0.4-2.6,0.8
			c-1.3,3.1-2.9,6.2-3.9,9.5c-2.2,7.4-5.9,14-10.1,20.3c-0.4,0.6-0.7,1.1-1.3,2c1.5,0.7,2.9,1.4,4.5,2.1
			c-8.5,10-16.3,20.3-18.3,33.7c0.6-1.1,1.1-2.2,1.7-3.3c11.5-21.3,29.8-32.9,53.5-36.4c13.8-2,27.5-0.9,41.1,2.1
			c2.1,0.5,3.9,0.3,5.7-0.6c3-1.5,5.9-3.2,8.9-4.7C338.7,193.8,340.2,193.4,341.6,192.9z M250.8,197.8c-0.7,0.7-1.2,1.1-1.8,1.7
			c-1-0.8-2-1.6-3.2-2.6C247.7,197.2,249.1,197.5,250.8,197.8z M249.6,191.1c2.3,0.6,4.7,1.2,7.2,1.9
			C254.7,194.8,252.7,194.3,249.6,191.1z M263.6,188.5c-0.7,0.8-1.6,1.5-2.2,1.3c-3.1-1-6.1-2.2-9.1-3.4c0.1-0.3,0.2-0.7,0.3-1
			C256.2,186.4,259.9,187.4,263.6,188.5z M254,253.7c0.8,0,1.3-0.1,2.3-0.1c-2.6,2.2-4.5,4.2-6.7,5.8c-3.2,2.2-6.4,4.5-10.4,5.2
			c-3,0.5-4.3,0-5.8-2.6c-1.6-2.8-1.8-5.9-1.6-9.2c8.7-0.4,16.9-2.2,24.8-5.4C256.9,247.5,255.2,251.6,254,253.7z M320.1,229.7
			c-2.4,1-4.7,2.2-7.1,2.8c-6.7,1.6-13.4,0.7-19.8-1.8c-4.2-1.7-7.7-4.1-10.4-7.7c-1-1.4-1-2.5-0.1-3.9c2.1-3.3,5.2-4.7,8.9-5.2
			c4.6-0.6,9,0.2,13.4,1.7c4.9,1.6,9.5,3.8,13.2,7.6c-1.8-0.7-3.6-1.5-5.5-2.2c-5-1.8-10-3.7-15.2-5.1c-3.8-1-7.7-0.8-10.9,2
			c-2.5,2.2-2.7,3.3-0.4,5.7c1.2,1.2,2.5,2.4,3.9,3.3c6.3,3.7,13.1,5,20.4,4c1.3-0.2,2.5-0.7,3.7-1c0-0.2-0.1-0.5-0.1-0.7
			c-4.7-0.1-9.5-0.1-14.2-0.2c3.3-3.3,7.5-0.3,11.3-2c-6.7-2.9-13.8-1.6-20.4-3.5c3.8-2.1,7.8-0.1,11.6-0.5c0-0.2,0.1-0.4,0.1-0.5
			c-3.5-0.9-7.1-1.9-10.8-2.9c0.5-0.3,0.6-0.4,0.7-0.4c8.1,0.4,15.9,2.2,23.1,6.1c1.7,0.9,3.2,2.4,4.8,3.6
			C320.2,229.1,320.1,229.4,320.1,229.7z M364.3,203.8c-0.2,1.1-1.2,1.8-2.2,1.7c-1-0.2-1.7-1.2-1.4-2.4c0.2-1.1,1.2-1.8,2.2-1.7
			C363.8,201.6,364.5,202.7,364.3,203.8z M359.3,206.9c4.3,1.8,6.4,0.9,7.6-3.4c0.3,2,0.1,3.4-1.9,4.6
			C363.2,209.2,361.4,208.4,359.3,206.9z M357.9,200c1.2-1.4,3.8-1.8,5.4-0.9c-4.1,0.1-5.5,1.8-5.2,6.2
			C357,203,356.8,201.4,357.9,200z"/>
	</g>
	<g>
		<path class="st1" d="M243.6,145.7h-15.1c-0.9,0-1.6-0.3-2.2-0.8c-0.6-0.5-0.9-1.2-0.9-2v-23.6h6.3v20.8h8.9v-20.8h6.3V143
			c0,0.8-0.3,1.5-0.9,2C245.2,145.5,244.5,145.7,243.6,145.7z"/>
		<path class="st1" d="M280.8,125h-6.1v20.8h-6.2V125h-6.1v-5.5h18.4V125z"/>
		<path class="st1" d="M311.7,145.7l-2-6.2h-9.8l-2.1,6.2h-6.4l8.6-26.2h9.4l8.6,26.2H311.7z M304.8,125l-3,8.8h6L304.8,125z"/>
		<path class="st1" d="M351.4,119.4v26.3h-6.1v-8.9h-8.5v8.9h-6.2v-26.3h6.2v11.9h8.5v-11.9H351.4z"/>
	</g>
	<g>
		<rect x="372.4" y="387.1" class="st1" width="10.2" height="7.2"/>
		<polygon class="st1" points="159.1,397.5 166.2,397.5 162.7,387.1 		"/>
		<path class="st1" d="M469.5,335.7c-8.5-4.2-16.5-21.7-27.3-34.2c-10.8-12.6-17.9-22-17.9-22l-20.7-10.8L389,289.1
			c0,0-11.8,3.3-13.2,6c-1.4,2.7,0.5,7.2-14.1,13.7c-14.6,6.6-34.4,24.1-37.9,29.2c-3.5,5.2-9.6,6.6-19.5,12.2
			c-9.9,5.7-25.4,8-30.6,7.5c-5.2-0.5-19.8-5.7-28.3-6.1c-8.5-0.5-24.5-11.8-29.7-12.2c-5.2-0.5-12.2-11.8-15.1-15.3
			c-2.8-3.5-7.1-5-11.8-9.3s-11.8-7.9-18.4-13.4c-6.6-5.5-6.1-3.9-8-3c-1.9,0.9-5.2,8-8,10.3c-2.8,2.3-28.3,16.5-33.9,19.4
			c-5.7,2.8-8,9.4-9.9,12.7c-1.9,3.3-18.4,11.8-18.4,11.8l-12.7,5.2l-2.4,63.6l31.8,10.1h366.5l22.3-10.1v-70.7
			C497.8,350.8,478,339.9,469.5,335.7z M170.9,411.6l-2.4-7.3h-11.5l-2.5,7.3h-7.6l10.2-31.1h11.2l10.2,31.1H170.9z M183.4,340.1
			c-1.6,3.5-4.4,6.8-4.4,6.8s-4.4-5.3-7.9-9.3c-3.5-4.1-2.8-7.9-6-6c-3.1,1.9-19.8,6-19.8,6l-10.1,4.7l1.9-8.5l-3.1-0.3
			c0,0-7.9,15.7-27.6,18.2c0,0,8.5-5,10.4-7.2c1.9-2.2,3.1-7.2,7.9-10.7c4.7-3.5,28-16,31.4-19.2c3.5-3.1,8.2-6.7,9.4-7.6
			c1.3-0.9,2.8,0.6,4.4,3.6c1.6,3,0.3,10.6,1.9,11.2c1.6,0.6,10.7,4,11.6,4.2C184.4,326.3,185,336.6,183.4,340.1z M222.1,411.6h-6.4
			l-14-21.1v21.1h-7.3v-31.1h10.5l9.8,15v-15h7.3V411.6z M266.2,391H259v-4h-10.5v18H259V401h-4.5v-6.6h11.8v6.6v7.2
			c0,1-0.4,1.7-1.1,2.4c-0.7,0.6-1.6,1-2.6,1h-17.7c-1,0-1.9-0.3-2.6-1c-0.7-0.6-1.1-1.4-1.1-2.4v-24.5c0-1,0.4-1.7,1.1-2.4
			c0.7-0.6,1.6-1,2.6-1h17.7c1,0,1.9,0.3,2.6,1c0.7,0.6,1.1,1.4,1.1,2.4V391z M304.7,411.6h-21.1v-31.1h7.4v24.5h13.7V411.6z
			 M346.6,387.1h-16.2v5.7h8.9v6.6h-8.9v5.6h16.2v6.6h-23.4v-31.1h23.4V387.1z M384.8,411.6l-7.1-10.7h-5.3v10.7h-7.3v-31.1h21.2
			c1,0,1.9,0.3,2.6,1c0.7,0.6,1.1,1.4,1.1,2.3v13.8c0,0.9-0.4,1.7-1.1,2.4c-0.7,0.6-1.6,1-2.6,1l7.1,10.7H384.8z M391.3,354.9
			c0,0,4.1-8.7-4.1-6.1c-8.2,2.6-41.8,13.6-41.8,13.6s3.3-16,6.7-18.5c3.4-2.5-43.1,13.5-43.1,13.5s8.9-9.1,16.6-12.2
			c7.6-3.1,11.6-14.1,15.9-15.9s24.8-16.3,29.8-18.6c5-2.3,10-13.2,10-13.2l12.6-0.6l12.6-17.5l11.6,20.4l-9.7,16.9l-13.2,12.5
			l22.9-9c0,0,2.2,1.9,3.5,9c1.3,7.1,1.3,12.1,0,14.9c-1.3,2.8-13.5,7.5-13.5,7.5L391.3,354.9z M431.5,386.9H417v5.5h10.9
			c1,0,1.9,0.3,2.6,1c0.7,0.6,1.1,1.4,1.1,2.4v12.5c0,1-0.4,1.7-1.1,2.4c-0.7,0.6-1.6,1-2.6,1h-18.3v-6.6h14.6v-5.8h-10.9
			c-1,0-1.9-0.3-2.6-1c-0.7-0.6-1.1-1.4-1.1-2.4v-12.2c0-0.9,0.4-1.7,1.1-2.3c0.7-0.6,1.6-1,2.6-1h18.2V386.9z"/>
	</g>
	<g>
		<path class="st1" d="M234.8,455.8v-3.3h-7.5v15.1h7.5v-3.3h6.2v6.1c0,0.8-0.3,1.5-0.9,2c-0.6,0.5-1.3,0.8-2.2,0.8h-13.7
			c-0.9,0-1.6-0.3-2.2-0.8c-0.6-0.5-0.9-1.2-0.9-2v-20.7c0-0.8,0.3-1.5,0.9-2c0.6-0.5,1.3-0.8,2.2-0.8h13.7c0.9,0,1.6,0.3,2.2,0.8
			c0.6,0.5,0.9,1.2,0.9,2v6.1H234.8z"/>
		<path class="st1" d="M262.2,467.6h11.6v5.6h-17.8v-26.3h6.3V467.6z"/>
		<path class="st1" d="M307.6,473.2h-15.1c-0.9,0-1.6-0.3-2.2-0.8c-0.6-0.5-0.9-1.2-0.9-2v-23.6h6.3v20.8h8.9v-20.8h6.3v23.6
			c0,0.8-0.3,1.5-0.9,2C309.2,472.9,308.5,473.2,307.6,473.2z"/>
		<path class="st1" d="M344.6,446.9c0.8,0,1.5,0.3,2.1,0.8c0.6,0.5,0.9,1.2,0.9,2v20.7c0,0.8-0.3,1.5-0.9,2
			c-0.6,0.5-1.3,0.8-2.1,0.8h-17.8v-26.3H344.6z M333,452.5v4.7h8.6v-4.7H333z M341.6,467.6v-4.8H333v4.8H341.6z"/>
	</g>
</g>
</svg>
